<?xml version="1.0" encoding="utf-8"?>
<svg xmlns="http://www.w3.org/2000/svg">
    <svg id="package" xmlns="http://www.w3.org/2000/svg" width="52" height="52" viewBox="0 0 26 26">
        <path d="M 12.4375 0.1875 L 0 5.09375 L 0 18.53125 L 15 25.90625 L 26 18.53125 L 26 5.09375 L 12.4375 0.1875 z M 12.46875 2.34375 L 23.6875 6.375 L 21.03125 7.78125 L 9.75 3.40625 L 12.46875 2.34375 z M 7.03125 4.5 L 18.6875 9.03125 L 15.59375 10.65625 L 3.4375 5.90625 L 7.03125 4.5 z M 2.0625 6.4375 L 15 11.5 L 15 23.5 L 14.84375 23.59375 L 2 17.28125 L 2 6.46875 L 2.0625 6.4375 z M 6.5 10.65625 L 5.03125 12.5625 L 6 12.875 L 6 15.625 L 7 16 L 7 13.21875 L 8 13.53125 L 6.5 10.65625 z M 10.5 12.03125 L 9 13.96875 L 10 14.3125 L 10 17.34375 L 11 17.71875 L 11 14.65625 L 11.96875 14.96875 L 10.5 12.03125 z M 5 16.03125 L 5 17.25 L 12 20.5625 L 12 19.3125 L 5 16.03125 z"/>
    </svg>
    <svg id="crafting" xmlns="http://www.w3.org/2000/svg" viewBox="0 0 32 32" width="64" height="64">
        <path style="text-indent:0;text-align:start;line-height:normal;text-transform:none;block-progression:tb;-inkscape-font-specification:Bitstream Vera Sans" d="M 5 5 L 5 6 L 5 26 L 5 27 L 6 27 L 26 27 L 27 27 L 27 26 L 27 6 L 27 5 L 26 5 L 6 5 L 5 5 z M 7 7 L 9.84375 7 C 9.4834927 8.4075952 8.4075952 9.4834927 7 9.84375 L 7 7 z M 11.90625 7 L 20.09375 7 C 20.51465 9.5125788 22.487421 11.48535 25 11.90625 L 25 20.09375 C 22.487421 20.51465 20.51465 22.487421 20.09375 25 L 11.90625 25 C 11.48535 22.487421 9.5125788 20.51465 7 20.09375 L 7 11.90625 C 9.5125788 11.48535 11.48535 9.5125788 11.90625 7 z M 22.15625 7 L 25 7 L 25 9.84375 C 23.592405 9.4834927 22.516507 8.4075952 22.15625 7 z M 11 11 L 11 12 L 11 20 L 11 21 L 12 21 L 20 21 L 21 21 L 21 20 L 21 12 L 21 11 L 20 11 L 12 11 L 11 11 z M 13 13 L 15 13 L 15 15 L 13 15 L 13 13 z M 17 13 L 19 13 L 19 15 L 17 15 L 17 13 z M 13 17 L 15 17 L 15 19 L 13 19 L 13 17 z M 17 17 L 19 17 L 19 19 L 17 19 L 17 17 z M 7 22.15625 C 8.4075952 22.516507 9.4834927 23.592405 9.84375 25 L 7 25 L 7 22.15625 z M 25 22.15625 L 25 25 L 22.15625 25 C 22.516507 23.592405 23.592405 22.516507 25 22.15625 z"/>
    </svg>
    <svg id="delete" xmlns="http://www.w3.org/2000/svg" viewBox="0 0 32 32" width="64" height="64">
        <path style="text-indent:0;text-align:start;line-height:normal;text-transform:none;block-progression:tb;-inkscape-font-specification:Bitstream Vera Sans" d="M 13.59375 4 L 13.28125 4.28125 L 12.5625 5 L 6 5 L 6 7 L 7 7 L 7 25 C 7 26.645455 8.3545455 28 10 28 L 22 28 C 23.645455 28 25 26.645455 25 25 L 25 7 L 26 7 L 26 5 L 19.4375 5 L 18.71875 4.28125 L 18.40625 4 L 18 4 L 14 4 L 13.59375 4 z M 14.4375 6 L 17.5625 6 L 18.28125 6.71875 L 18.59375 7 L 19 7 L 23 7 L 23 25 C 23 25.554545 22.554545 26 22 26 L 10 26 C 9.4454545 26 9 25.554545 9 25 L 9 7 L 13 7 L 13.40625 7 L 13.71875 6.71875 L 14.4375 6 z M 11 11 L 11 22 L 13 22 L 13 11 L 11 11 z M 15 11 L 15 22 L 17 22 L 17 11 L 15 11 z M 19 11 L 19 22 L 21 22 L 21 11 L 19 11 z" overflow="visible" font-family="Bitstream Vera Sans"/>
    </svg>
    <svg id="steve" xmlns="http://www.w3.org/2000/svg" width="50" height="50" viewBox="0 0 50 50">
        <path style="text-indent:0;text-align:start;line-height:normal;text-transform:none;block-progression:tb;-inkscape-font-specification:Bitstream Vera Sans" d="M 2.8125 4 A 1.0001 1.0001 0 0 0 2.53125 4.125 A 1.0001 1.0001 0 0 0 2.375 4.21875 A 1.0001 1.0001 0 0 0 2.28125 4.28125 C 2.2553105 4.3071895 2.2417286 4.3463528 2.21875 4.375 A 1.0001 1.0001 0 0 0 2.125 4.53125 A 1.0001 1.0001 0 0 0 2 5 L 2 18 L 2 45 A 1.0001 1.0001 0 0 0 3 46 L 47 46 A 1.0001 1.0001 0 0 0 48 45 L 48 18 L 48 5 A 1.0001 1.0001 0 0 0 47.96875 4.8125 A 1.0001 1.0001 0 0 0 47.90625 4.625 C 47.879206 4.5609968 47.851672 4.4938813 47.8125 4.4375 A 1.0001 1.0001 0 0 0 47.65625 4.25 C 47.618169 4.2167585 47.574097 4.1834813 47.53125 4.15625 A 1.0001 1.0001 0 0 0 47.0625 4 A 1.0001 1.0001 0 0 0 47 4 L 3 4 A 1.0001 1.0001 0 0 0 2.90625 4 A 1.0001 1.0001 0 0 0 2.8125 4 z M 10 12 L 40 12 L 40 18 C 40 18.552 40.447 19 41 19 L 46 19 L 46 44 L 38 44 L 38 37 C 38 36.447 37.553 36 37 36 L 33 36 C 32.447 36 32 36.447 32 37 L 32 40 L 18 40 L 18 37 C 18 36.447 17.552 36 17 36 L 13 36 C 12.448 36 12 36.447 12 37 L 12 44 L 4 44 L 4 19 L 9 19 C 9.552 19 10 18.552 10 18 L 10 12 z M 10.8125 20 A 1.0001 1.0001 0 0 0 10 21 L 10 27 A 1.0001 1.0001 0 0 0 11 28 L 22 28 A 1.0001 1.0001 0 0 0 22.375 27.90625 C 22.404716 27.893694 22.440582 27.890265 22.46875 27.875 A 1.0001 1.0001 0 0 0 22.625 27.75 C 22.631918 27.744288 22.64949 27.755893 22.65625 27.75 A 1.0001 1.0001 0 0 0 22.75 27.65625 C 22.759115 27.645808 22.772569 27.635818 22.78125 27.625 A 1.0001 1.0001 0 0 0 23 27 L 23 21 A 1.0001 1.0001 0 0 0 22.90625 20.625 C 22.893674 20.595284 22.890285 20.559418 22.875 20.53125 A 1.0001 1.0001 0 0 0 22.71875 20.28125 C 22.712409 20.274909 22.694008 20.28742 22.6875 20.28125 A 1.0001 1.0001 0 0 0 22.65625 20.25 C 22.645803 20.240885 22.635822 20.227431 22.625 20.21875 A 1.0001 1.0001 0 0 0 22 20 L 11 20 A 1.0001 1.0001 0 0 0 10.90625 20 A 1.0001 1.0001 0 0 0 10.8125 20 z M 27.8125 20 A 1.0001 1.0001 0 0 0 27 21 L 27 27 A 1.0001 1.0001 0 0 0 27.25 27.65625 C 27.264999 27.673448 27.265121 27.702621 27.28125 27.71875 A 1.0001 1.0001 0 0 0 27.3125 27.71875 C 27.322552 27.728278 27.333308 27.740893 27.34375 27.75 A 1.0001 1.0001 0 0 0 27.9375 28 C 27.95884 28.001354 27.978314 28 28 28 L 39 28 A 1.0001 1.0001 0 0 0 40 27 L 40 21 A 1.0001 1.0001 0 0 0 39 20 L 28 20 A 1.0001 1.0001 0 0 0 27.90625 20 A 1.0001 1.0001 0 0 0 27.8125 20 z M 12 22 L 16 22 L 16 26 L 12 26 L 12 22 z M 34 22 L 38 22 L 38 26 L 34 26 L 34 22 z M 22 30 C 21.448 30 21 30.447 21 31 L 21 35 C 21 35.553 21.448 36 22 36 L 28 36 C 28.553 36 29 35.553 29 35 L 29 31 C 29 30.447 28.553 30 28 30 L 22 30 z" overflow="visible" font-family="Bitstream Vera Sans"/>
    </svg>
    <svg id="downloads" xmlns="http://www.w3.org/2000/svg" viewBox="0 0 32 32" width="64" height="64">
        <path d="M 16 6 C 13.35207 6 11.051929 7.2374781 9.40625 9.0625 C 9.2703551 9.0463006 9.1477293 9 9 9 C 6.8026661 9 5 10.802666 5 13 C 3.2703261 14.054754 2 15.834851 2 18 C 2 21.301625 4.6983746 24 8 24 L 13 24 L 13 22 L 8 22 C 5.7796254 22 4 20.220375 4 18 C 4 16.338324 5.0091817 14.922353 6.4375 14.3125 L 7.125 14.03125 L 7.03125 13.28125 C 7.0103607 13.119051 7 13.025078 7 13 C 7 11.883334 7.8833339 11 9 11 C 9.14 11 9.2952692 11.02145 9.46875 11.0625 L 10.09375 11.21875 L 10.46875 10.71875 C 11.751887 9.0736352 13.75001 8 16 8 C 19.27847 8 22.011594 10.253351 22.78125 13.28125 L 22.96875 14.0625 L 23.8125 14.03125 C 24.02413 14.019087 24.071091 14 24 14 C 26.220375 14 28 15.779625 28 18 C 28 20.220375 26.220375 22 24 22 L 19 22 L 19 24 L 24 24 C 27.301625 24 30 21.301625 30 18 C 30 14.842292 27.509852 12.314931 24.40625 12.09375 C 23.183479 8.5733113 19.926695 6 16 6 z M 15 18 L 15 26 L 12 26 L 16 30 L 20 26 L 17 26 L 17 18 L 15 18 z"/>
    </svg>
    <svg id="stars" xmlns="http://www.w3.org/2000/svg" viewBox="0 0 32 32" width="64" height="64">
        <path style="text-indent:0;text-align:start;line-height:normal;text-transform:none;block-progression:tb;-inkscape-font-specification:Bitstream Vera Sans" d="M 4 4 L 4 5 L 4 27 L 4 28 L 5 28 L 27 28 L 28 28 L 28 27 L 28 5 L 28 4 L 27 4 L 5 4 L 4 4 z M 6 6 L 26 6 L 26 26 L 6 26 L 6 6 z M 16 8.40625 L 13.6875 13.59375 L 8 14.1875 L 12.3125 18 L 11.09375 23.59375 L 16 20.6875 L 20.90625 23.59375 L 19.6875 18 L 24 14.1875 L 18.3125 13.59375 L 16 8.40625 z M 16 13.3125 L 16.5 14.40625 L 17 15.5 L 18.1875 15.59375 L 19.40625 15.6875 L 18.5 16.5 L 17.59375 17.3125 L 17.8125 18.40625 L 18.09375 19.59375 L 17 19 L 16 18.40625 L 15 19 L 14 19.59375 L 14.3125 18.40625 L 14.5 17.3125 L 13.59375 16.5 L 12.6875 15.6875 L 13.90625 15.59375 L 15.09375 15.5 L 15.59375 14.40625 L 16 13.3125 z" overflow="visible" font-family="Bitstream Vera Sans"/>
    </svg>
    <svg id="runs" xmlns="http://www.w3.org/2000/svg" viewBox="0 0 32 32" width="64" height="64">
        <path style="text-indent:0;text-align:start;line-height:normal;text-transform:none;block-progression:tb;-inkscape-font-specification:Bitstream Vera Sans" d="M 8.15625 7 L 8.03125 7.8125 L 5.03125 23.8125 L 4.78125 25 L 6 25 L 26 25 L 26.84375 25 L 26.96875 24.1875 L 29.96875 8.1875 L 30.21875 7 L 29 7 L 9 7 L 8.15625 7 z M 9.8125 9 L 27.8125 9 L 27.4375 11 L 9.4375 11 L 9.8125 9 z M 2 11 L 2 13 L 5.25 13 L 5.5625 11 L 2 11 z M 9.0625 13 L 27.0625 13 L 25.1875 23 L 7.1875 23 L 9.0625 13 z M 2 15 L 2 17 L 4.59375 17 L 4.90625 15 L 2 15 z M 12.09375 15 L 11.90625 15.78125 L 11.03125 19.78125 L 10.75 21 L 12 21 L 21.5625 21 L 22.375 21 L 22.5625 20.21875 L 23.4375 16.21875 L 23.71875 15 L 22.46875 15 L 12.875 15 L 12.09375 15 z M 13.6875 17 L 21.21875 17 L 20.78125 19 L 13.25 19 L 13.6875 17 z M 2 19 L 2 21 L 3.9375 21 L 4.25 19 L 2 19 z" overflow="visible" font-family="Bitstream Vera Sans"/>
    </svg>
    <svg id="settings" xmlns="http://www.w3.org/2000/svg" viewBox="0 0 32 32" width="64" height="64">
        <path style="text-indent:0;text-align:start;line-height:normal;text-transform:none;block-progression:tb;-inkscape-font-specification:Bitstream Vera Sans" d="M 12.3125 4.53125 L 10.46875 5.28125 L 11.625 8.15625 C 10.172045 8.9708031 8.9708031 10.172045 8.15625 11.625 L 5.28125 10.46875 L 4.53125 12.3125 L 7.375 13.46875 C 7.1404613 14.269509 7 15.124932 7 16 C 7 16.875068 7.1404613 17.730491 7.375 18.53125 L 4.53125 19.6875 L 5.28125 21.53125 L 8.15625 20.375 C 8.9692617 21.825206 10.179164 23.02705 11.625 23.84375 L 10.46875 26.71875 L 12.3125 27.46875 L 13.46875 24.625 C 14.269784 24.861394 15.122974 25 16 25 C 16.875068 25 17.730491 24.859539 18.53125 24.625 L 19.6875 27.46875 L 21.53125 26.71875 L 20.375 23.84375 C 21.827955 23.029197 23.029197 21.827955 23.84375 20.375 L 26.71875 21.53125 L 27.46875 19.6875 L 24.625 18.53125 C 24.859539 17.730491 25 16.875068 25 16 C 25 15.124932 24.859539 14.269509 24.625 13.46875 L 27.46875 12.3125 L 26.71875 10.46875 L 23.84375 11.625 C 23.029197 10.172045 21.827955 8.9708031 20.375 8.15625 L 21.53125 5.28125 L 19.6875 4.53125 L 18.53125 7.375 C 17.730491 7.1404613 16.875068 7 16 7 C 15.124932 7 14.269509 7.1404613 13.46875 7.375 L 12.3125 4.53125 z M 16 9 C 19.877838 9 23 12.122162 23 16 C 23 19.877838 19.877838 23 16 23 C 12.122162 23 9 19.877838 9 16 C 9 12.122162 12.122162 9 16 9 z M 16 12 C 13.802706 12 12 13.802706 12 16 C 12 18.197294 13.802706 20 16 20 C 18.197294 20 20 18.197294 20 16 C 20 13.802706 18.197294 12 16 12 z M 16 14 C 17.116414 14 18 14.883586 18 16 C 18 17.116414 17.116414 18 16 18 C 14.883586 18 14 17.116414 14 16 C 14 14.883586 14.883586 14 16 14 z"/>
    </svg>
    <svg id="package-new" xmlns="http://www.w3.org/2000/svg" xmlns:xlink="http://www.w3.org/1999/xlink" x="0" y="0" version="1.1" viewBox="0 0 26 26" width="52" height="52" style="fill: rgb(44, 62, 80);">
        <g fill="none" stroke="none" stroke-width="1" stroke-linecap="butt" stroke-linejoin="miter" stroke-miterlimit="10" stroke-dasharray="" stroke-dashoffset="0" font-family="sans-serif" font-weight="normal" font-size="12" text-anchor="start" mix-blend-mode="normal">
            <g>
                <g>
                    <path d="M0,26l0,-26l26,0l0,26z" fill="none"/>
                    <g fill="currentColor">
                        <path d="M12,20l0,0.5625l-7,-3.3125l0,-1.21875l7,3.28125z M12.36177,22.3739c0.37381,1.19421 1.02151,2.27035 1.86865,3.15398l-14.23042,-6.99662l0,-13.4375l12.4375,-4.90625l13.5625,4.90625l0,9.62905c-1.46887,-1.66696 -3.61712,-2.7228 -6,-2.7228c-1.88759,0 -3.62794,0.66254 -5,1.76655l0,-2.26655l-12.9375,-5.0625l-0.0625,0.03125l0,10.8125z M11,14.65625l0,3.0625l-1,-0.375l0,-3.03125l-1,-0.34375l1.5,-1.9375l1.46875,2.9375z M3.4375,5.90625l12.15625,4.75l3.09375,-1.625l-11.65625,-4.53125z M9.75,3.40625l11.28125,4.375l2.65625,-1.40625l-11.21875,-4.03125z M8,13.53125l-1,-0.3125l0,2.78125l-1,-0.375l0,-2.75l-0.96875,-0.3125l1.46875,-1.90625z"/>
                    </g>
                    <g fill="currentColor">
                        <g>
                            <path d="M20,14c-3.3,0 -6,2.7 -6,6c0,3.3 2.7,6 6,6c3.3,0 6,-2.7 6,-6c0,-3.3 -2.7,-6 -6,-6z M23,21l-2,0l0,2l-2,0l0,-2l-2,0l0,-2l2,0l0,-2l2,0l0,2l2,0z"/>
                        </g>
                    </g>
                </g>
            </g>
        </g>
    </svg>
</svg>