<?xml version="1.0" encoding="utf-8"?>
<svg xmlns="http://www.w3.org/2000/svg">
    <svg id="package" xmlns="http://www.w3.org/2000/svg" width="52" height="52" viewBox="0 0 26 26">
        <path d="M 12.4375 0.1875 L 0 5.09375 L 0 18.53125 L 15 25.90625 L 26 18.53125 L 26 5.09375 L 12.4375 0.1875 z M 12.46875 2.34375 L 23.6875 6.375 L 21.03125 7.78125 L 9.75 3.40625 L 12.46875 2.34375 z M 7.03125 4.5 L 18.6875 9.03125 L 15.59375 10.65625 L 3.4375 5.90625 L 7.03125 4.5 z M 2.0625 6.4375 L 15 11.5 L 15 23.5 L 14.84375 23.59375 L 2 17.28125 L 2 6.46875 L 2.0625 6.4375 z M 6.5 10.65625 L 5.03125 12.5625 L 6 12.875 L 6 15.625 L 7 16 L 7 13.21875 L 8 13.53125 L 6.5 10.65625 z M 10.5 12.03125 L 9 13.96875 L 10 14.3125 L 10 17.34375 L 11 17.71875 L 11 14.65625 L 11.96875 14.96875 L 10.5 12.03125 z M 5 16.03125 L 5 17.25 L 12 20.5625 L 12 19.3125 L 5 16.03125 z"/>
    </svg>
</svg>