<?xml version="1.0" encoding="utf-8"?>
<svg xmlns="http://www.w3.org/2000/svg">
    <svg id="package" xmlns="http://www.w3.org/2000/svg" width="52" height="52" viewBox="0 0 26 26">
        <path d="M 12.4375 0.1875 L 0 5.09375 L 0 18.53125 L 15 25.90625 L 26 18.53125 L 26 5.09375 L 12.4375 0.1875 z M 12.46875 2.34375 L 23.6875 6.375 L 21.03125 7.78125 L 9.75 3.40625 L 12.46875 2.34375 z M 7.03125 4.5 L 18.6875 9.03125 L 15.59375 10.65625 L 3.4375 5.90625 L 7.03125 4.5 z M 2.0625 6.4375 L 15 11.5 L 15 23.5 L 14.84375 23.59375 L 2 17.28125 L 2 6.46875 L 2.0625 6.4375 z M 6.5 10.65625 L 5.03125 12.5625 L 6 12.875 L 6 15.625 L 7 16 L 7 13.21875 L 8 13.53125 L 6.5 10.65625 z M 10.5 12.03125 L 9 13.96875 L 10 14.3125 L 10 17.34375 L 11 17.71875 L 11 14.65625 L 11.96875 14.96875 L 10.5 12.03125 z M 5 16.03125 L 5 17.25 L 12 20.5625 L 12 19.3125 L 5 16.03125 z"/>
    </svg>
    <svg id="crafting" xmlns="http://www.w3.org/2000/svg" viewBox="0 0 32 32" width="64" height="64">
        <path style="text-indent:0;text-align:start;line-height:normal;text-transform:none;block-progression:tb;-inkscape-font-specification:Bitstream Vera Sans" d="M 5 5 L 5 6 L 5 26 L 5 27 L 6 27 L 26 27 L 27 27 L 27 26 L 27 6 L 27 5 L 26 5 L 6 5 L 5 5 z M 7 7 L 9.84375 7 C 9.4834927 8.4075952 8.4075952 9.4834927 7 9.84375 L 7 7 z M 11.90625 7 L 20.09375 7 C 20.51465 9.5125788 22.487421 11.48535 25 11.90625 L 25 20.09375 C 22.487421 20.51465 20.51465 22.487421 20.09375 25 L 11.90625 25 C 11.48535 22.487421 9.5125788 20.51465 7 20.09375 L 7 11.90625 C 9.5125788 11.48535 11.48535 9.5125788 11.90625 7 z M 22.15625 7 L 25 7 L 25 9.84375 C 23.592405 9.4834927 22.516507 8.4075952 22.15625 7 z M 11 11 L 11 12 L 11 20 L 11 21 L 12 21 L 20 21 L 21 21 L 21 20 L 21 12 L 21 11 L 20 11 L 12 11 L 11 11 z M 13 13 L 15 13 L 15 15 L 13 15 L 13 13 z M 17 13 L 19 13 L 19 15 L 17 15 L 17 13 z M 13 17 L 15 17 L 15 19 L 13 19 L 13 17 z M 17 17 L 19 17 L 19 19 L 17 19 L 17 17 z M 7 22.15625 C 8.4075952 22.516507 9.4834927 23.592405 9.84375 25 L 7 25 L 7 22.15625 z M 25 22.15625 L 25 25 L 22.15625 25 C 22.516507 23.592405 23.592405 22.516507 25 22.15625 z"/>
    </svg>
    <svg id="steve" xmlns="http://www.w3.org/2000/svg" width="50" height="50" viewBox="0 0 50 50">
        <path style="text-indent:0;text-align:start;line-height:normal;text-transform:none;block-progression:tb;-inkscape-font-specification:Bitstream Vera Sans" d="M 2.8125 4 A 1.0001 1.0001 0 0 0 2.53125 4.125 A 1.0001 1.0001 0 0 0 2.375 4.21875 A 1.0001 1.0001 0 0 0 2.28125 4.28125 C 2.2553105 4.3071895 2.2417286 4.3463528 2.21875 4.375 A 1.0001 1.0001 0 0 0 2.125 4.53125 A 1.0001 1.0001 0 0 0 2 5 L 2 18 L 2 45 A 1.0001 1.0001 0 0 0 3 46 L 47 46 A 1.0001 1.0001 0 0 0 48 45 L 48 18 L 48 5 A 1.0001 1.0001 0 0 0 47.96875 4.8125 A 1.0001 1.0001 0 0 0 47.90625 4.625 C 47.879206 4.5609968 47.851672 4.4938813 47.8125 4.4375 A 1.0001 1.0001 0 0 0 47.65625 4.25 C 47.618169 4.2167585 47.574097 4.1834813 47.53125 4.15625 A 1.0001 1.0001 0 0 0 47.0625 4 A 1.0001 1.0001 0 0 0 47 4 L 3 4 A 1.0001 1.0001 0 0 0 2.90625 4 A 1.0001 1.0001 0 0 0 2.8125 4 z M 10 12 L 40 12 L 40 18 C 40 18.552 40.447 19 41 19 L 46 19 L 46 44 L 38 44 L 38 37 C 38 36.447 37.553 36 37 36 L 33 36 C 32.447 36 32 36.447 32 37 L 32 40 L 18 40 L 18 37 C 18 36.447 17.552 36 17 36 L 13 36 C 12.448 36 12 36.447 12 37 L 12 44 L 4 44 L 4 19 L 9 19 C 9.552 19 10 18.552 10 18 L 10 12 z M 10.8125 20 A 1.0001 1.0001 0 0 0 10 21 L 10 27 A 1.0001 1.0001 0 0 0 11 28 L 22 28 A 1.0001 1.0001 0 0 0 22.375 27.90625 C 22.404716 27.893694 22.440582 27.890265 22.46875 27.875 A 1.0001 1.0001 0 0 0 22.625 27.75 C 22.631918 27.744288 22.64949 27.755893 22.65625 27.75 A 1.0001 1.0001 0 0 0 22.75 27.65625 C 22.759115 27.645808 22.772569 27.635818 22.78125 27.625 A 1.0001 1.0001 0 0 0 23 27 L 23 21 A 1.0001 1.0001 0 0 0 22.90625 20.625 C 22.893674 20.595284 22.890285 20.559418 22.875 20.53125 A 1.0001 1.0001 0 0 0 22.71875 20.28125 C 22.712409 20.274909 22.694008 20.28742 22.6875 20.28125 A 1.0001 1.0001 0 0 0 22.65625 20.25 C 22.645803 20.240885 22.635822 20.227431 22.625 20.21875 A 1.0001 1.0001 0 0 0 22 20 L 11 20 A 1.0001 1.0001 0 0 0 10.90625 20 A 1.0001 1.0001 0 0 0 10.8125 20 z M 27.8125 20 A 1.0001 1.0001 0 0 0 27 21 L 27 27 A 1.0001 1.0001 0 0 0 27.25 27.65625 C 27.264999 27.673448 27.265121 27.702621 27.28125 27.71875 A 1.0001 1.0001 0 0 0 27.3125 27.71875 C 27.322552 27.728278 27.333308 27.740893 27.34375 27.75 A 1.0001 1.0001 0 0 0 27.9375 28 C 27.95884 28.001354 27.978314 28 28 28 L 39 28 A 1.0001 1.0001 0 0 0 40 27 L 40 21 A 1.0001 1.0001 0 0 0 39 20 L 28 20 A 1.0001 1.0001 0 0 0 27.90625 20 A 1.0001 1.0001 0 0 0 27.8125 20 z M 12 22 L 16 22 L 16 26 L 12 26 L 12 22 z M 34 22 L 38 22 L 38 26 L 34 26 L 34 22 z M 22 30 C 21.448 30 21 30.447 21 31 L 21 35 C 21 35.553 21.448 36 22 36 L 28 36 C 28.553 36 29 35.553 29 35 L 29 31 C 29 30.447 28.553 30 28 30 L 22 30 z" overflow="visible" font-family="Bitstream Vera Sans"/>
    </svg>
    <svg id="settings" xmlns="http://www.w3.org/2000/svg" viewBox="0 0 24 24" width="48" height="48">
        <path d="M 12.0625 0 C 9.7745 -1.9428903e-16 9.8125 0.21875 9.8125 0.21875 C 9.5405 1.53775 9.2555 2.43275 9.0625 2.96875 C 7.8965 3.34975 6.82525 3.94775 5.90625 4.71875 C 5.35225 4.60975 4.45775 4.40675 3.21875 3.96875 C 3.21875 3.96875 3.052 3.8235 1.875 5.8125 C 0.696 7.7995 0.875 7.90625 0.875 7.90625 C 1.788 8.76425 2.387 9.426 2.75 9.875 C 2.593 10.559 2.5 11.268 2.5 12 C 2.5 12.663 2.5585 13.3125 2.6875 13.9375 C 2.3145 14.3785 1.70525 15.043 0.78125 15.875 C 0.78125 15.875 0.613 15.95675 1.75 17.96875 C 2.886 19.98075 3.03125 19.84375 3.03125 19.84375 C 4.28225 19.43075 5.193 19.25325 5.75 19.15625 C 6.666 19.95925 7.72925 20.56375 8.90625 20.96875 C 9.10025 21.49675 9.4065 22.41425 9.6875 23.78125 C 9.6875 23.78125 9.6505 24 11.9375 24 C 14.2215 24 14.21875 23.78125 14.21875 23.78125 C 14.49075 22.46325 14.7435 21.56625 14.9375 21.03125 C 16.1035 20.65025 17.17575 20.05225 18.09375 19.28125 C 18.64875 19.39025 19.54325 19.59225 20.78125 20.03125 C 20.78125 20.03125 20.944 20.1755 22.125 18.1875 C 23.302 16.1985 23.125 16.09375 23.125 16.09375 C 22.211 15.23575 21.613 14.573 21.25 14.125 C 21.406 13.439 21.5 12.732 21.5 12 C 21.5 11.337 21.4415 10.6875 21.3125 10.0625 C 21.6855 9.6225 22.29375 8.958 23.21875 8.125 C 23.21875 8.125 23.387 8.04425 22.25 6.03125 C 21.114 4.01825 20.96875 4.15625 20.96875 4.15625 C 19.71875 4.56925 18.807 4.74675 18.25 4.84375 C 17.334 4.04175 16.26975 3.43625 15.09375 3.03125 C 14.90075 2.50425 14.5945 1.58475 14.3125 0.21875 C 14.3125 0.21875 14.3465 0 12.0625 0 z M 12 4 C 16.418 4 20 7.582 20 12 C 20 16.418 16.418 20 12 20 C 7.582 20 4 16.418 4 12 C 4 7.582 7.582 4 12 4 z M 12 5 C 8.134 5 5 8.134 5 12 C 5 15.866 8.134 19 12 19 C 15.866 19 19 15.866 19 12 C 19 8.134 15.866 5 12 5 z M 12 8 C 14.209 8 16 9.791 16 12 C 16 14.209 14.209 16 12 16 C 9.791 16 8 14.209 8 12 C 8 9.791 9.791 8 12 8 z"/>
    </svg>
    <svg id="package-new" xmlns="http://www.w3.org/2000/svg" xmlns:xlink="http://www.w3.org/1999/xlink" x="0" y="0" version="1.1" viewBox="0 0 26 26" width="52" height="52" style="fill: rgb(44, 62, 80);">
        <g fill="none" stroke="none" stroke-width="1" stroke-linecap="butt" stroke-linejoin="miter" stroke-miterlimit="10" stroke-dasharray="" stroke-dashoffset="0" font-family="sans-serif" font-weight="normal" font-size="12" text-anchor="start" mix-blend-mode="normal">
            <g>
                <g>
                    <path d="M0,26l0,-26l26,0l0,26z" fill="none"/>
                    <g fill="currentColor">
                        <path d="M12,20l0,0.5625l-7,-3.3125l0,-1.21875l7,3.28125z M12.36177,22.3739c0.37381,1.19421 1.02151,2.27035 1.86865,3.15398l-14.23042,-6.99662l0,-13.4375l12.4375,-4.90625l13.5625,4.90625l0,9.62905c-1.46887,-1.66696 -3.61712,-2.7228 -6,-2.7228c-1.88759,0 -3.62794,0.66254 -5,1.76655l0,-2.26655l-12.9375,-5.0625l-0.0625,0.03125l0,10.8125z M11,14.65625l0,3.0625l-1,-0.375l0,-3.03125l-1,-0.34375l1.5,-1.9375l1.46875,2.9375z M3.4375,5.90625l12.15625,4.75l3.09375,-1.625l-11.65625,-4.53125z M9.75,3.40625l11.28125,4.375l2.65625,-1.40625l-11.21875,-4.03125z M8,13.53125l-1,-0.3125l0,2.78125l-1,-0.375l0,-2.75l-0.96875,-0.3125l1.46875,-1.90625z"/>
                    </g>
                    <g fill="currentColor">
                        <g>
                            <path d="M20,14c-3.3,0 -6,2.7 -6,6c0,3.3 2.7,6 6,6c3.3,0 6,-2.7 6,-6c0,-3.3 -2.7,-6 -6,-6z M23,21l-2,0l0,2l-2,0l0,-2l-2,0l0,-2l2,0l0,-2l2,0l0,2l2,0z"/>
                        </g>
                    </g>
                </g>
            </g>
        </g>
    </svg>
</svg>